<svg width="32" height="33" viewBox="0 0 32 33" fill="none" xmlns="http://www.w3.org/2000/svg">
<path d="M29.9951 0.7458C30.8973 -0.0413225 33.1129 1.1336 31.3184 3.24873C29.4038 5.50492 25.4134 5.92682 24.6104 6.05635C23.8059 6.18618 14.4561 8.14856 14.4541 8.40791C14.4541 9.57362 14.4072 18.4242 14.4072 23.3894C14.3934 24.2835 14.4599 26.0137 14.2695 26.8483C13.6824 29.8221 10.331 32.4997 6.80176 32.4997C2.91481 32.4995 3.80178e-05 29.6831 0 26.3688C0 23.0545 3.15104 20.368 7.03809 20.3679C8.28244 20.3679 9.48041 20.5992 10.5342 21.0222V7.63057C10.613 6.98282 11.1575 5.51503 12.8955 5.16963C15.0684 4.73788 27.3977 2.0177 27.8701 1.93135C28.3424 1.84498 28.9564 1.65192 29.9951 0.7458ZM25.2246 13.2233C25.6025 13.0075 26.5325 12.5053 27.1611 13.4821C28.1058 14.9501 25.61 16.5357 24.4688 16.9997C23.0983 17.4372 20.6424 17.9932 18.375 18.3386C16.4503 18.6315 16.2027 15.8566 17.667 15.3386C19.9815 14.6046 21.514 14.4621 22.627 14.2155C24.1853 13.8703 23.6302 14.1339 25.2246 13.2233ZM27.4932 7.32881C27.7765 7.06971 29.4353 5.86057 29.9961 7.67353C30.4873 9.26228 27.7287 10.6678 26.3115 11.1716C24.6099 11.6465 21.4922 12.4331 18.5166 12.8552C16.2493 13.1765 16.2025 10.3943 17.7139 9.78975C19.7921 9.25096 22.6217 8.70142 23.9961 8.3874C25.5076 8.04202 27.068 7.71747 27.4932 7.32881Z" fill="#F9FAFB"/>
</svg>
